<?xml version="1.0" standalone="no"?><!DOCTYPE svg PUBLIC "-//W3C//DTD SVG 1.1//EN" "http://www.w3.org/Graphics/SVG/1.1/DTD/svg11.dtd"><svg t="1633662792554" class="icon" viewBox="0 0 1024 1024" version="1.1" xmlns="http://www.w3.org/2000/svg" p-id="3234" xmlns:xlink="http://www.w3.org/1999/xlink" width="200" height="200"><defs><style type="text/css"></style></defs><path d="M190 308.2m-111.4 0a111.4 111.4 0 1 0 222.8 0 111.4 111.4 0 1 0-222.8 0Z" fill="#FFFFFF" p-id="3235"></path><path d="M190 438.2c-71.8 0-130-58.2-130-130s58.2-130 130-130 130 58.2 130 130c-0.1 71.8-58.3 130-130 130z m0-222.8c-51.3 0-92.8 41.6-92.8 92.8S138.8 401 190 401s92.8-41.6 92.8-92.8c0-51.2-41.6-92.8-92.8-92.8z" fill="#9A4DFF" p-id="3236"></path><path d="M834.6 308.2m-111.4 0a111.4 111.4 0 1 0 222.8 0 111.4 111.4 0 1 0-222.8 0Z" fill="#FFFFFF" p-id="3237"></path><path d="M834.6 438.2c-71.8 0-130-58.2-130-130s58.2-130 130-130 130 58.2 130 130-58.2 130-130 130z m0-222.8c-51.3 0-92.8 41.6-92.8 92.8s41.6 92.8 92.8 92.8c51.3 0 92.8-41.6 92.8-92.8s-41.5-92.8-92.8-92.8z" fill="#9A4DFF" p-id="3238"></path><path d="M510.5 520.2m-309.4 0a309.4 309.4 0 1 0 618.8 0 309.4 309.4 0 1 0-618.8 0Z" fill="#FFFFFF" p-id="3239"></path><path d="M510.5 848.2c-181.2 0-328-146.9-328-328 0-181.2 146.9-328 328-328 181.2 0 328 146.9 328 328-0.2 181-147 327.8-328 328z m0-618.9c-160.6 0-290.9 130.2-290.9 290.9s130.2 290.9 290.9 290.9 290.9-130.2 290.9-290.9-130.3-290.9-290.9-290.9z" fill="#9A4DFF" p-id="3240"></path><path d="M510.5 706.8c-61.2 0.2-119.9-24.2-163-67.6-7.5-7-7.9-18.7-0.9-26.2s18.7-7.9 26.2-0.9l0.9 0.9c75.5 75.5 197.9 75.6 273.4 0.1l0.1-0.1c7-7.5 18.7-7.9 26.2-0.9s7.9 18.7 0.9 26.2l-0.9 0.9c-43 43.5-101.7 67.8-162.9 67.6z" fill="#FF3399" p-id="3241"></path><path d="M394.8 447m-43.3 0a43.3 43.3 0 1 0 86.6 0 43.3 43.3 0 1 0-86.6 0Z" fill="#FFFFFF" p-id="3242"></path><path d="M394.7 508.9c-34.2 0-61.9-27.7-61.9-61.9s27.7-61.9 61.9-61.9 61.9 27.7 61.9 61.9-27.7 61.9-61.9 61.9z m0-86.6c-13.7 0-24.8 11.1-24.8 24.8s11.1 24.8 24.8 24.8 24.8-11.1 24.8-24.8-11.1-24.8-24.8-24.8z" fill="#9A4DFF" p-id="3243"></path><path d="M630 447m-43.3 0a43.3 43.3 0 1 0 86.6 0 43.3 43.3 0 1 0-86.6 0Z" fill="#FFFFFF" p-id="3244"></path><path d="M629.9 508.9c-34.2 0-61.9-27.7-61.9-61.9s27.7-61.9 61.9-61.9 61.9 27.7 61.9 61.9-27.8 61.9-61.9 61.9z m0-86.6c-13.7 0-24.8 11.1-24.8 24.8s11.1 24.8 24.8 24.8 24.8-11.1 24.8-24.8-11.2-24.8-24.8-24.8z" fill="#9A4DFF" p-id="3245"></path></svg>