<?xml version="1.0" standalone="no"?><!DOCTYPE svg PUBLIC "-//W3C//DTD SVG 1.1//EN" "http://www.w3.org/Graphics/SVG/1.1/DTD/svg11.dtd"><svg t="1633865401103" class="icon" viewBox="0 0 1024 1024" version="1.1" xmlns="http://www.w3.org/2000/svg" p-id="2470" xmlns:xlink="http://www.w3.org/1999/xlink" width="200" height="200"><defs><style type="text/css"></style></defs><path d="M512 85.504l-170.592 170.592 0-68.256-136.48 0 0 204.736-120.16 120.16 24.128 24.128 403.104-403.104 403.104 403.104 24.128-24.128-427.232-427.232zM239.04 221.984l68.224 0 0 68.224-68.256 68.256 0-136.48z" p-id="2471" fill="#ea6f5a"></path><path d="M204.928 529.056l0 409.44 238.848 0 0-238.848 136.48 0 0 238.848 238.848 0 0-409.44-307.072-307.072-307.072 307.072zM784.96 904.384l-170.592 0 0-238.848-204.736 0 0 238.848-170.592 0 0-361.184 272.96-272.96 272.96 272.96 0 361.184z" p-id="2472" fill="#ea6f5a"></path></svg>