<?xml version="1.0" standalone="no"?><!DOCTYPE svg PUBLIC "-//W3C//DTD SVG 1.1//EN" "http://www.w3.org/Graphics/SVG/1.1/DTD/svg11.dtd"><svg t="1633662267193" class="icon" viewBox="0 0 1024 1024" version="1.1" xmlns="http://www.w3.org/2000/svg" p-id="767" xmlns:xlink="http://www.w3.org/1999/xlink" width="200" height="200"><defs><style type="text/css"></style></defs><path d="M486.54 449.24s-161.12-100.37-335.45-76.6c0 0-15.84 14.85-10.56 36.48 0 0 87.16 19 100.37 95.59l-2.64 132.06s-12.72 71.32-98.81 76.6c0 0 1.08 37 14.29 47.55 0 0 124.14-15.85 332.8 100.37z" fill="#ea6f5a" p-id="768"></path><path d="M131.46 466.04m38.61 0l-0.01 0q38.61 0 38.61 38.61l0 104.78q0 38.61-38.61 38.61l0.01 0q-38.61 0-38.61-38.61l0-104.78q0-38.61 38.61-38.61Z" fill="#ea6f5a" p-id="769"></path><path d="M537.46 449.24s161.12-100.37 335.45-76.6c0 0 15.84 14.85 10.56 36.48 0 0-87.16 19-100.37 95.59l2.64 132.06s12.72 71.32 98.81 76.6c0 0-1.08 37-14.29 47.55 0 0-124.14-15.85-332.8 100.37z" fill="#ea6f5a" p-id="770"></path><path d="M815.33 466.04m38.61 0l-0.01 0q38.61 0 38.61 38.61l0 104.78q0 38.61-38.61 38.61l0.01 0q-38.61 0-38.61-38.61l0-104.78q0-38.61 38.61-38.61Z" fill="#ea6f5a" p-id="771"></path><path d="M332.75 360.07s143.86 38.81 180.39 73.07c0 0 137-68.51 178.11-73.07 0 0-143.86-59.37-358.5 0z" fill="#ea6f5a" p-id="772"></path><path d="M512 253.71m-91 0a91 91 0 1 0 182 0 91 91 0 1 0-182 0Z" fill="#ea6f5a" p-id="773"></path><path d="M486.55 861.29l-106.24-51.94V400.68l106.24 48.56v412.05zM534.7 861.29l106.23-51.94V400.68L534.7 449.24v412.05z" fill="#ea6f5a" p-id="774"></path></svg>